<?xml version="1.0" encoding="utf-8"?>
<!-- Generator: Adobe Illustrator 23.0.3, SVG Export Plug-In . SVG Version: 6.00 Build 0)  -->
<svg version="1.1" id="Calque_1" xmlns="http://www.w3.org/2000/svg" xmlns:xlink="http://www.w3.org/1999/xlink" x="0px" y="0px"
	 viewBox="0 0 1445.9 735" style="enable-background:new 0 0 1445.9 735;" xml:space="preserve">
<style type="text/css">
	.st0{fill:#020203;}
	.st1{enable-background:new    ;}
</style>
<g>
	<g>
		<polygon id="polygon5" class="st0" points="15.9,440.7 200.2,440.7 200.2,533.1 292.1,533.1 292.1,366.2 108.2,366.2 292.1,181.8 
			200.2,181.8 15.9,366.2 		"/>
		<polygon id="polygon7" class="st0" points="331.9,274.1 423.9,181.8 331.9,181.8 		"/>
		<polygon id="polygon9" class="st0" points="423.9,274.1 331.9,366.2 331.9,458.2 423.9,458.2 423.9,366.2 516.2,274.1 
			516.2,181.8 423.9,181.8 		"/>
		<polygon id="polygon11" class="st0" points="516.2,366.2 423.9,458.2 516.2,458.2 		"/>
	</g>
	<g class="st1">
		<path class="st0" d="M670.3,389.1l-4.8,39.4h15.3l-1.2,9.5h-26.6l6-49H670.3z"/>
		<path class="st0" d="M696,415.2l-14.3-26.2h12.9l8,15.2l11.7-15.2h13.8l-20.8,26.2l-2.8,22.8h-11.3L696,415.2z"/>
		<path class="st0" d="M771.9,394.4c4.2,4,6.9,10.2,6.9,17.4c0,7-2.4,14.5-7.6,19.8c-6.2,6.3-13.9,7.6-20.3,7.6
			c-6.1,0-12.9-1.1-18.7-7c-3.4-3.5-6.9-9.1-6.9-17.1c0-8.6,3.5-15.3,8.1-19.7c6.2-6,13.8-7.4,20.1-7.4
			C763,388,768.6,391.3,771.9,394.4z M741.5,403.1c-2.9,3-4.5,7.1-4.5,11.2c0,4.5,1.7,8,4,10.3c3.3,3.4,7.3,4.1,10.7,4.1
			c3.3,0,7.3-0.5,10.9-4.2c2.6-2.7,4.6-7,4.6-12c0-3.2-0.7-7.1-3.9-10.3c-3.2-3.2-7.1-3.8-10.1-3.8
			C748.3,398.4,744.4,400,741.5,403.1z"/>
		<path class="st0" d="M784.1,438.1l6.1-49h9.8l22.6,31.9l4-31.9h11.3l-6,49H822l-22.7-32l-3.9,32H784.1z"/>
	</g>
	<g class="st1">
		<path class="st0" d="M685.6,505.2h-18.5l-3.7,9.3h-11.8l19.8-49h10.4l19.3,49h-11.8L685.6,505.2z M682.5,496.6l-6-16.5l-6.1,16.5
			H682.5z"/>
		<path class="st0" d="M715.9,481.7v18.1c0,1.5,0.1,3.7,1.8,5.3c0.7,0.7,2.1,1.5,4.4,1.5c2,0,3.5-0.7,4.5-1.5
			c1.5-1.5,1.8-3.7,1.8-5.3v-18.1H739v19.1c0,3.7-0.4,7.3-3.7,10.5c-3.7,3.7-9.3,4.3-13.1,4.3c-4,0-9.5-0.6-13.2-4.3
			c-3-2.9-3.6-6.2-3.6-9.8v-19.8H715.9z"/>
		<path class="st0" d="M754.8,481.7l8.3,17.6l8.3-17.6H783l-16.6,32.8h-6.6l-16.6-32.8H754.8z"/>
		<path class="st0" d="M819.8,500h-24.5c0,1.8,0.7,4.1,2,5.6c1.6,1.8,3.8,2.1,5.4,2.1c1.5,0,3.2-0.3,4.3-1c0.1-0.1,1.4-0.9,2.3-2.7
			l10,1c-1.5,4.6-4.4,7.1-6.3,8.2c-3.2,1.9-6.7,2.4-10.4,2.4c-4.9,0-9.3-0.9-13.1-4.7c-2.9-2.9-4.9-7.2-4.9-12.6
			c0-4.7,1.7-9.5,5-12.9c4-4,8.9-4.7,12.6-4.7c3.7,0,9,0.7,13,4.9c3.9,4.1,4.6,9.3,4.6,13.3V500z M810,493.6
			c-0.1-0.3-0.6-2.4-2.1-3.8c-1.2-1.1-2.9-1.8-5-1.8c-2.7,0-4.3,1.1-5.4,2.1c-0.8,0.9-1.5,2.1-1.8,3.5H810z"/>
		<path class="st0" d="M826.4,481.7h10.6v5.1c1-1.8,2.4-3.5,4.1-4.6c1.8-1.1,3.6-1.4,5.7-1.4c1.3,0,2.3,0.1,3.5,0.5l-0.6,9.9
			c-1.4-0.7-2.9-1.2-4.8-1.2c-2.3,0-4,0.8-5.3,2.2c-2.4,2.5-2.6,6-2.6,8.8v13.3h-10.6V481.7z"/>
		<path class="st0" d="M879.5,481.7h10.6v30.8c0,4.6-0.2,9.8-4,14c-4,4.3-10.2,4.8-13.8,4.8c-4.3,0-9.5-0.7-13.7-4.2
			c-2.1-1.8-4.2-4.6-4.9-8.7h11.5c0.4,1.7,1.5,2.6,2.4,3.2c1.2,0.8,3,1.1,4.6,1.1c3,0,4.6-1.1,5.3-1.8c2.1-2,2.1-5.4,2.1-6.8v-3.7
			c-1.2,2.1-3.7,4.9-9.8,4.9c-5.1,0-9-1.6-12-4.6c-2.6-2.7-4.8-6.7-4.8-12.3c0-5.6,2.1-10.2,4.8-13.1c2-2.1,5.8-4.7,11.9-4.7
			c5.9,0,8.6,3.2,9.8,4.9V481.7z M866.3,491.9c-1.6,1.5-2.5,4.1-2.5,6.1c0,2.1,0.8,4.3,2.3,5.9c1.5,1.5,3.5,2.4,6,2.4
			c2.8,0,4.6-1.1,5.7-2.1c1.6-1.5,2.6-3.8,2.6-6.2c0-2.6-1.1-4.7-2.5-6c-1.5-1.4-3.8-2.1-5.7-2.1
			C869.8,489.8,867.6,490.7,866.3,491.9z"/>
		<path class="st0" d="M898.3,481.7h10.6v3.9c3.2-4.1,7.1-4.8,10.1-4.8c2.9,0,6.6,0.5,9.4,3.3c3.1,3.1,3.3,7,3.3,9.6v20.7h-10.6
			v-16.8c0-2.1-0.1-4.8-1.8-6.5c-0.8-0.8-2.1-1.5-4-1.5c-2.2,0-3.6,0.9-4.4,1.8c-1.8,1.8-2.1,4.1-2.1,6.2v16.8h-10.6V481.7z"/>
		<path class="st0" d="M973.5,500H949c0,1.8,0.7,4.1,2,5.6c1.6,1.8,3.8,2.1,5.4,2.1c1.5,0,3.2-0.3,4.3-1c0.1-0.1,1.4-0.9,2.3-2.7
			l10,1c-1.5,4.6-4.4,7.1-6.3,8.2c-3.2,1.9-6.7,2.4-10.4,2.4c-4.9,0-9.3-0.9-13.1-4.7c-2.9-2.9-4.9-7.2-4.9-12.6
			c0-4.7,1.7-9.5,5-12.9c4-4,8.9-4.7,12.6-4.7c3.7,0,9,0.7,13,4.9c3.9,4.1,4.6,9.3,4.6,13.3V500z M963.7,493.6
			c-0.1-0.3-0.6-2.4-2.1-3.8c-1.2-1.1-2.9-1.8-5-1.8c-2.7,0-4.3,1.1-5.4,2.1c-0.8,0.9-1.5,2.1-1.8,3.5H963.7z"/>
		<path class="st0" d="M981.2,491.3h18.8v9.3h-18.8V491.3z"/>
		<path class="st0" d="M1026.2,465.5c6.2,0,10.1,2.1,12.5,4.3c2.1,2,4.3,5.5,4.3,10.9c0,3.1-0.7,6.9-3.8,10
			c-1.7,1.6-4.1,3.1-6.8,3.7l15.1,20.1h-13.8l-13.2-19.3v19.3H1009v-49H1026.2z M1020.4,487.8h2.6c2.1,0,4.8-0.2,6.8-2.1
			c0.8-0.8,1.8-2.4,1.8-4.8c0-2.8-1.3-4.3-2.3-5c-1.8-1.4-4.8-1.5-6.2-1.5h-2.6V487.8z"/>
		<path class="st0" d="M1052.7,461h10.6v24.7c1.3-1.6,2.7-2.7,4-3.4c2.2-1.2,4-1.4,6.4-1.4c2.6,0,6.4,0.4,9.3,3.3
			c3,3,3.2,7.1,3.2,9.5v20.8h-10.6v-16.8c0-2.3-0.1-4.9-1.8-6.5c-1-1-2.6-1.5-4.1-1.5c-2.3,0-3.6,1-4.2,1.6
			c-2.1,2.1-2.2,5.2-2.2,6.8v16.4h-10.6V461z"/>
		<path class="st0" d="M1125.5,510.3c-2.9,2.9-7.9,5.3-14.3,5.3s-11.4-2.4-14.3-5.3c-3.3-3.3-4.9-8-4.9-12.2s1.6-8.9,4.9-12.2
			c2.9-2.9,7.9-5.3,14.3-5.3s11.4,2.4,14.3,5.3c3.3,3.3,4.9,8,4.9,12.2S1128.8,507,1125.5,510.3z M1102.4,476.7l-4.7-5.1l13.4-10.4
			l13.5,10.4l-4.8,5.1l-8.7-7L1102.4,476.7z M1105.2,491.9c-1.5,1.5-2.4,3.5-2.4,6.2c0,3,1.2,4.9,2.4,6.2c1.3,1.3,3.2,2.4,6,2.4
			c2.4,0,4.3-0.8,5.9-2.4c1.5-1.5,2.4-3.5,2.4-6.2s-0.9-4.6-2.4-6.2c-1.5-1.5-3.5-2.4-5.9-2.4S1106.7,490.4,1105.2,491.9z"/>
		<path class="st0" d="M1137,481.7h10.6v3.9c3.2-4.1,7.1-4.8,10.1-4.8c2.9,0,6.6,0.5,9.4,3.3c3.1,3.1,3.3,7,3.3,9.6v20.7h-10.6
			v-16.8c0-2.1-0.1-4.8-1.8-6.5c-0.8-0.8-2.1-1.5-4-1.5c-2.2,0-3.6,0.9-4.4,1.8c-1.8,1.8-2.1,4.1-2.1,6.2v16.8H1137V481.7z"/>
		<path class="st0" d="M1212.2,500h-24.5c0,1.8,0.7,4.1,2,5.6c1.6,1.8,3.8,2.1,5.4,2.1c1.5,0,3.2-0.3,4.3-1c0.1-0.1,1.4-0.9,2.3-2.7
			l10,1c-1.5,4.6-4.4,7.1-6.3,8.2c-3.2,1.9-6.7,2.4-10.4,2.4c-4.9,0-9.3-0.9-13.1-4.7c-2.9-2.9-4.9-7.2-4.9-12.6
			c0-4.7,1.7-9.5,5-12.9c4-4,8.9-4.7,12.6-4.7s9,0.7,13,4.9c3.9,4.1,4.6,9.3,4.6,13.3V500z M1202.5,493.6c-0.1-0.3-0.6-2.4-2.1-3.8
			c-1.2-1.1-2.9-1.8-5-1.8c-2.7,0-4.3,1.1-5.4,2.1c-0.8,0.9-1.5,2.1-1.8,3.5H1202.5z"/>
		<path class="st0" d="M1219.9,491.3h18.8v9.3h-18.8V491.3z"/>
		<path class="st0" d="M1278.1,505.2h-18.5l-3.7,9.3h-11.8l19.8-49h10.4l19.3,49h-11.8L1278.1,505.2z M1275,496.6l-6-16.5l-6.1,16.5
			H1275z"/>
		<path class="st0" d="M1308.7,461v53.5h-10.6V461H1308.7z"/>
		<path class="st0" d="M1327.8,531.3h-10.6v-49.6h10.6v3.9c3.5-4.5,7.7-5,10.2-5c5.9,0,9.5,2.6,11.6,4.6c2.9,2.9,4.9,7.4,4.9,12.8
			c0,5.7-2,9.9-5.2,13.1c-3.2,3.2-6.8,4.4-11.1,4.4c-6.5,0-9.3-3.3-10.4-4.8V531.3z M1329.5,492.2c-1.7,1.7-2.5,4-2.5,6
			c0,2.1,0.8,4.2,2.4,5.8c1.5,1.5,3.7,2.5,6,2.5c2,0,4.1-0.8,5.7-2.3c1.7-1.6,2.6-4.1,2.6-6.2c0-2.4-1-4.6-2.5-6
			c-1.5-1.5-3.6-2.3-5.7-2.3C1332.5,489.7,1330.6,491.1,1329.5,492.2z"/>
		<path class="st0" d="M1394.7,500h-24.5c0,1.8,0.7,4.1,2,5.6c1.6,1.8,3.8,2.1,5.4,2.1c1.5,0,3.2-0.3,4.3-1c0.1-0.1,1.4-0.9,2.3-2.7
			l10,1c-1.5,4.6-4.4,7.1-6.3,8.2c-3.2,1.9-6.7,2.4-10.4,2.4c-4.9,0-9.3-0.9-13.1-4.7c-2.9-2.9-4.9-7.2-4.9-12.6
			c0-4.7,1.7-9.5,5-12.9c4-4,8.9-4.7,12.6-4.7s9,0.7,13,4.9c3.9,4.1,4.6,9.3,4.6,13.3V500z M1384.9,493.6c-0.1-0.3-0.6-2.4-2.1-3.8
			c-1.2-1.1-2.9-1.8-5-1.8c-2.7,0-4.3,1.1-5.4,2.1c-0.8,0.9-1.5,2.1-1.8,3.5H1384.9z"/>
		<path class="st0" d="M1421.4,490.1c-1.6-1-3.7-1.8-5.8-1.8c-1.1,0-2.4,0.3-3,1c-0.4,0.4-0.7,1-0.7,1.5c0,0.7,0.5,1.2,1,1.5
			c0.7,0.4,1.8,0.7,3.2,1.1l2.8,0.9c1.8,0.6,3.7,1.3,5.4,2.9c1.9,1.8,2.6,3.7,2.6,6.2c0,4.3-1.9,7.1-3.4,8.6
			c-3.2,3.2-7.2,3.7-10.7,3.7c-4.4,0-9.2-1-13.4-4.7l4.5-7.1c1,0.9,2.5,1.9,3.6,2.4c1.5,0.7,3,1,4.4,1c0.7,0,2.4,0,3.3-0.7
			c0.7-0.5,1.1-1.3,1.1-2.1c0-0.6-0.2-1.3-1.2-1.9c-0.7-0.4-1.7-0.7-3.2-1.2l-2.6-0.8c-1.9-0.6-3.9-1.6-5.3-3
			c-1.5-1.6-2.4-3.5-2.4-6c0-3.2,1.2-5.8,3.2-7.6c2.9-2.7,6.9-3.3,9.9-3.3c4.8,0,8.2,1.2,10.9,2.8L1421.4,490.1z"/>
	</g>
	<rect x="610.4" y="365.4" class="st0" width="7.3" height="91.8"/>
</g>
</svg>
